HIERARCHY
ROOT Hips
{
	OFFSET 0.00000 0.00000 0.00000
	CHANNELS 6 Xposition Yposition Zposition Zrotation Yrotation Xrotation 
	JOINT LHipJoint
	{
		OFFSET 0 0 0
		CHANNELS 3 Zrotation Yrotation Xrotation
		JOINT LeftUpLeg
		{
			OFFSET 1.58895 -1.83665 0.71753
			CHANNELS 3 Zrotation Yrotation Xrotation
			JOINT LeftLeg
			{
				OFFSET 2.50528 -6.88321 0.00000
				CHANNELS 3 Zrotation Yrotation Xrotation
				JOINT LeftFoot
				{
					OFFSET 2.63244 -7.23257 0.00000
					CHANNELS 3 Zrotation Yrotation Xrotation
					JOINT LeftToeBase
					{
						OFFSET 0.23691 -0.65090 1.72750
						CHANNELS 3 Zrotation Yrotation Xrotation
						End Site
						{
							OFFSET 0.00000 -0.00000 0.92561
						}
					}
				}
			}
		}
	}
	JOINT RHipJoint
	{
		OFFSET 0 0 0
		CHANNELS 3 Zrotation Yrotation Xrotation
		JOINT RightUpLeg
		{
			OFFSET -1.51435 -1.83665 0.71753
			CHANNELS 3 Zrotation Yrotation Xrotation
			JOINT RightLeg
			{
				OFFSET -2.54551 -6.99375 0.00000
				CHANNELS 3 Zrotation Yrotation Xrotation
				JOINT RightFoot
				{
					OFFSET -2.66027 -7.30903 0.00000
					CHANNELS 3 Zrotation Yrotation Xrotation
					JOINT RightToeBase
					{
						OFFSET -0.22981 -0.63138 2.03959
						CHANNELS 3 Zrotation Yrotation Xrotation
						End Site
						{
							OFFSET -0.00000 -0.00000 1.07060
						}
					}
				}
			}
		}
	}
	JOINT LowerBack
	{
		OFFSET 0 0 0
		CHANNELS 3 Zrotation Yrotation Xrotation
		JOINT Spine
		{
			OFFSET -0.02651 1.86275 -0.11152
			CHANNELS 3 Zrotation Yrotation Xrotation
			JOINT Spine1
			{
				OFFSET 0.01019 1.86224 0.04087
				CHANNELS 3 Zrotation Yrotation Xrotation
				JOINT Neck
				{
					OFFSET 0 0 0
					CHANNELS 3 Zrotation Yrotation Xrotation
					JOINT Neck1
					{
						OFFSET -0.01926 1.80512 0.08867
						CHANNELS 3 Zrotation Yrotation Xrotation
						JOINT Head
						{
							OFFSET 0.05516 1.76451 -0.38475
							CHANNELS 3 Zrotation Yrotation Xrotation
							End Site
							{
								OFFSET 0.01592 1.82587 -0.14001
							}
						}
					}
				}
				JOINT LeftShoulder
				{
					OFFSET 0 0 0
					CHANNELS 3 Zrotation Yrotation Xrotation
					JOINT LeftArm
					{
						OFFSET 3.47116 1.51376 0.14491
						CHANNELS 3 Zrotation Yrotation Xrotation
						JOINT LeftForeArm
						{
							OFFSET 4.78095 -0.00000 0.00000
							CHANNELS 3 Zrotation Yrotation Xrotation
							JOINT LeftHand
							{
								OFFSET 3.58615 -0.00000 -0.00000
								CHANNELS 3 Zrotation Yrotation Xrotation
								JOINT LeftFingerBase
								{
									OFFSET 0 0 0
									CHANNELS 3 Zrotation Yrotation Xrotation
									JOINT LeftHandIndex1
									{
										OFFSET 0.65981 -0.00000 0.00000
										CHANNELS 3 Zrotation Yrotation Xrotation
										End Site
										{
											OFFSET 0.53196 -0.00000 0.00000
										}
									}
								}
								JOINT LThumb
								{
									OFFSET 0 0 0
									CHANNELS 3 Zrotation Yrotation Xrotation
									End Site
									{
										OFFSET 0.54008 -0.00000 0.54008
									}
								}
							}
						}
					}
				}
				JOINT RightShoulder
				{
					OFFSET 0 0 0
					CHANNELS 3 Zrotation Yrotation Xrotation
					JOINT RightArm
					{
						OFFSET -3.31725 1.61216 0.35156
						CHANNELS 3 Zrotation Yrotation Xrotation
						JOINT RightForeArm
						{
							OFFSET -4.48913 -0.00000 0.00000
							CHANNELS 3 Zrotation Yrotation Xrotation
							JOINT RightHand
							{
								OFFSET -3.70510 -0.00000 0.00000
								CHANNELS 3 Zrotation Yrotation Xrotation
								JOINT RightFingerBase
								{
									OFFSET 0 0 0
									CHANNELS 3 Zrotation Yrotation Xrotation
									JOINT RightHandIndex1
									{
										OFFSET -0.44914 -0.00000 0.00000
										CHANNELS 3 Zrotation Yrotation Xrotation
										End Site
										{
											OFFSET -0.36211 -0.00000 0.00000
										}
									}
								}
								JOINT RThumb
								{
									OFFSET 0 0 0
									CHANNELS 3 Zrotation Yrotation Xrotation
									End Site
									{
										OFFSET -0.36763 -0.00000 0.36763
									}
								}
							}
						}
					}
				}
			}
		}
	}
}
MOTION
Frames: 7
Frame Time: .0083333
-0.9299 17.8862 6.0323 -2.3985 2.5351 -6.4283 0.0000 0.0000 0.0000 -12.5704 1.7856 28.5794 1.8530 -8.5529 -24.4064 -0.5712 14.0645 -0.1416 0.5066 -4.5628 -12.6656 0.0000 0.0000 0.0000 14.8647 -13.4164 22.9836 -0.8079 5.7362 -16.0210 -0.0303 -12.3217 -17.9173 -0.1000 2.0397 -5.6153 3.0497 1.3605 7.8656 3.0654 2.1089 2.7277 1.2585 1.0520 -1.5928 -13.4237 -13.4946 -8.6102 8.4552 -18.5128 21.0342 2.6924 -8.9031 10.1765 -0.0000 -0.0000 0.0000 -45.3595 8.8510 75.7937 149.4249 -41.3813 -108.2120 -0.0000 0.0000 -33.6413 15.4747 -16.4205 -4.4749 -7.1250 0.0000 -0.0000 -8.2002 13.1040 6.1927 -0.0000 -0.0000 0.0000 43.8308 -9.5187 66.1261 -108.9654 58.5963 -76.3471 0.0000 -0.0000 -14.8428 -22.1271 -32.1957 12.2240 7.1250 -0.0000 -0.0000 12.3850 -63.7718 -5.6797
-0.9371 17.9032 5.9632 -2.3708 3.0222 -6.3658 0.0000 0.0000 0.0000 -12.5539 1.7339 28.1800 1.8798 -8.6112 -24.5863 -0.5378 13.9467 0.6222 0.4984 -4.5259 -12.5612 0.0000 0.0000 0.0000 14.8811 -13.6623 22.6785 -0.8223 5.7859 -16.1645 0.0317 -12.7637 -17.7459 -0.0914 1.9502 -5.3680 3.2241 1.4847 9.3044 3.1577 2.3423 3.2781 1.2043 1.1687 -1.8145 -14.0505 -14.4671 -7.4886 9.3502 -19.8782 18.6610 2.9562 -9.5683 9.4664 0.0000 -0.0000 0.0000 -45.7724 7.8759 75.5838 149.6445 -41.1961 -108.3570 -0.0000 0.0000 -33.0967 15.6824 -16.5590 -4.5748 -7.1250 0.0000 -0.0000 -8.0647 12.9424 6.1158 0.0000 -0.0000 0.0000 44.4105 -7.0579 63.7036 -102.4244 59.4086 -70.7385 0.0000 -0.0000 -12.3964 -19.7884 -32.3554 10.8989 7.1250 -0.0000 -0.0000 15.2245 -63.3045 -6.8429
-0.9447 17.9213 5.9020 -2.3678 3.5528 -6.1262 0.0000 0.0000 0.0000 -12.5525 1.5414 27.6220 1.9002 -8.6550 -24.7220 -0.5086 13.8816 1.3066 0.5399 -4.7078 -13.0771 0.0000 0.0000 0.0000 14.9730 -13.8905 22.1716 -0.8293 5.8100 -16.2341 0.0873 -13.1617 -17.6043 -0.0873 1.9057 -5.2451 3.5267 1.6097 10.3324 3.2313 2.5735 3.7610 1.0647 1.2866 -1.8671 -14.9721 -15.4346 -6.2157 10.6837 -21.2978 16.2961 3.3980 -10.2612 8.8694 0.0000 0.0000 0.0000 -46.1519 6.7286 75.3331 149.7336 -41.1206 -108.4156 -0.0000 0.0000 -32.6322 15.6912 -16.6334 -4.5974 -7.1250 0.0000 -0.0000 -8.0605 12.8657 6.1256 0.0000 0.0000 0.0000 44.6436 -4.3823 61.5406 -96.1504 59.8566 -65.3239 0.0000 -0.0000 -11.7008 -19.0203 -33.2266 10.6967 7.1250 -0.0000 -0.0000 16.8445 -63.9350 -7.8395
-0.9527 17.9415 5.8545 -2.3754 4.1134 -5.6594 0.0000 0.0000 0.0000 -12.5743 1.2124 26.8604 1.9102 -8.6765 -24.7886 -0.4836 13.8541 1.8994 0.6190 -5.0349 -14.0080 0.0000 0.0000 0.0000 15.1346 -14.1023 21.4072 -0.8237 5.7908 -16.1786 0.1214 -13.4295 -17.5601 -0.0857 1.8885 -5.1975 3.9266 1.7456 10.8812 3.3087 2.8127 4.0909 0.8829 1.4106 -1.8063 -15.9567 -16.3893 -4.5943 12.0557 -22.7266 13.8654 3.8787 -10.9935 8.2542 -0.0000 -0.0000 0.0000 -46.4713 5.4566 75.0542 149.6516 -41.1902 -108.3616 -0.0000 0.0000 -32.4033 15.5726 -16.6254 -4.5589 -7.1250 0.0000 -0.0000 -8.1392 12.8855 6.1833 -0.0000 -0.0000 0.0000 44.6891 -1.6481 59.3552 -89.6592 59.9996 -59.7049 0.0000 -0.0000 -11.4090 -17.9422 -33.7901 10.2087 7.1250 -0.0000 -0.0000 18.5882 -64.1764 -8.7822
-0.9630 17.9640 5.8187 -2.3698 4.6212 -5.0420 0.0000 0.0000 0.0000 -12.5894 0.8789 25.9632 1.9120 -8.6802 -24.8001 -0.4579 13.7502 2.3323 0.6308 -5.0820 -14.1425 0.0000 0.0000 0.0000 15.3352 -14.1944 20.5261 -0.8146 5.7593 -16.0877 0.1337 -13.5903 -17.6448 -0.0717 1.7274 -4.7530 4.3621 1.9139 11.1210 3.3584 3.0898 4.2402 0.6537 1.5530 -1.7568 -16.6512 -17.3188 -2.8512 13.1314 -24.1202 11.5953 4.2443 -11.7363 7.6401 0.0000 0.0000 0.0000 -46.7024 4.1303 74.7586 149.3573 -41.4379 -108.1674 -0.0000 0.0000 -32.3383 15.5141 -16.4668 -4.4991 -7.1250 0.0000 -0.0000 -8.1748 13.0530 6.1819 0.0000 0.0000 0.0000 44.6847 1.0801 57.6684 -82.9108 59.8092 -53.8645 0.0000 -0.0000 -11.9827 -20.7045 -33.0265 11.6400 7.1250 -0.0000 -0.0000 14.7243 -64.1983 -6.9204
-0.9734 17.9845 5.7897 -2.3278 5.1480 -4.4030 0.0000 0.0000 0.0000 -12.6450 0.4423 25.0867 1.9050 -8.6653 -24.7539 -0.4365 13.6293 2.6193 0.6072 -4.9878 -13.8737 0.0000 0.0000 0.0000 15.4957 -14.2642 19.6618 -0.8059 5.7293 -16.0009 0.1327 -13.6833 -17.8028 -0.0524 1.4772 -4.0628 4.7713 2.0700 11.1559 3.4156 3.3402 4.2956 0.4559 1.6819 -1.6919 -17.1039 -18.2155 -1.3100 13.9009 -25.4354 9.6434 4.4823 -12.4472 7.1132 -0.0000 -0.0000 0.0000 -46.9670 2.7558 74.3498 148.8991 -41.8185 -107.8630 -0.0000 0.0000 -32.4661 15.2545 -16.1627 -4.3413 -7.1250 0.0000 -0.0000 -8.3423 13.3876 6.2521 -0.0000 -0.0000 0.0000 44.6249 4.1297 55.0236 -75.1719 59.1527 -47.1950 0.0000 -0.0000 -7.7686 -16.5686 -33.3236 9.2827 7.1250 -0.0000 -0.0000 19.7001 -63.3740 -8.9581
-0.9822 18.0004 5.7656 -2.2921 5.7892 -3.8775 0.0000 0.0000 0.0000 -12.7066 -0.1013 24.3483 1.8905 -8.6342 -24.6577 -0.4195 13.5264 2.8352 0.6267 -5.0656 -14.0958 0.0000 0.0000 0.0000 15.6291 -14.4495 18.9622 -0.8029 5.7188 -15.9707 0.1417 -13.8514 -17.9466 -0.0446 1.3629 -3.7480 5.2776 2.1753 11.1548 3.4757 3.5351 4.2828 0.2143 1.7824 -1.6710 -17.3712 -19.0695 0.0577 14.4893 -26.6654 7.8940 4.6472 -13.1170 6.6385 -0.0000 -0.0000 0.0000 -47.3713 1.3135 73.9387 148.3114 -42.2975 -107.4692 -0.0000 0.0000 -32.5696 14.9424 -15.8126 -4.1593 -7.1250 0.0000 -0.0000 -8.5460 13.7727 6.3380 -0.0000 -0.0000 0.0000 44.5452 7.1290 52.5515 -67.6255 58.0212 -40.7518 0.0000 -0.0000 -5.2825 -14.4522 -33.3792 8.0705 7.1250 -0.0000 -0.0000 22.0824 -62.8734 -9.8336
